<?xml version="1.0" encoding="UTF-8" standalone="no"?>
<svg
   xmlns:dc="http://purl.org/dc/elements/1.1/"
   xmlns:cc="http://creativecommons.org/ns#"
   xmlns:rdf="http://www.w3.org/1999/02/22-rdf-syntax-ns#"
   xmlns:svg="http://www.w3.org/2000/svg"
   xmlns="http://www.w3.org/2000/svg"
   xmlns:xlink="http://www.w3.org/1999/xlink"
   viewBox="0 0 81.755515 71.206888"
   version="1.1"
   id="svg4976"
   height="75.954018"
   width="87.205887">
  <defs
     id="defs4978">
    <linearGradient
       gradientTransform="matrix(0.07610158,-0.00857017,0.00887616,0.0734781,-11.22358,-10.065145)"
       gradientUnits="userSpaceOnUse"
       y2="431.5831"
       x2="772.86774"
       y1="545.42731"
       x1="786.30273"
       id="linearGradient6164"
       xlink:href="#linearGradient6158" />
    <linearGradient
       id="linearGradient6158">
      <stop
         id="stop6160"
         offset="0"
         style="stop-color:#ffffff;stop-opacity:1;" />
      <stop
         id="stop6162"
         offset="1"
         style="stop-color:#ffffff;stop-opacity:0;" />
    </linearGradient>
    <linearGradient
       gradientTransform="matrix(0.07610158,-0.00857017,0.00887616,0.0734781,-11.22358,-10.065145)"
       gradientUnits="userSpaceOnUse"
       y2="282.5"
       x2="868"
       y1="240"
       x1="805"
       id="linearGradient6122"
       xlink:href="#linearGradient6124" />
    <linearGradient
       id="linearGradient6124">
      <stop
         style="stop-color:#ffffff;stop-opacity:1;"
         offset="0"
         id="stop6126" />
      <stop
         style="stop-color:#164450;stop-opacity:1"
         offset="1"
         id="stop6128" />
    </linearGradient>
    <linearGradient
       gradientTransform="matrix(0.07909136,-0.00890686,0.00887616,0.0734781,-14.065239,-9.5871408)"
       gradientUnits="userSpaceOnUse"
       y2="325"
       x2="761.5"
       y1="345.5"
       x1="958"
       id="linearGradient6095"
       xlink:href="#linearGradient6158" />
    <filter
       id="filter6077"
       style="color-interpolation-filters:sRGB">
      <feGaussianBlur
         id="feGaussianBlur6079"
         result="blur"
         stdDeviation="4.61" />
      <feComposite
         id="feComposite6081"
         result="composite1"
         operator="atop"
         in2="blur"
         in="SourceGraphic" />
      <feComposite
         id="feComposite6083"
         result="composite2"
         operator="in"
         in2="composite1" />
      <feComposite
         id="feComposite6085"
         result="composite3"
         operator="in"
         in2="composite2" />
    </filter>
    <linearGradient
       gradientUnits="userSpaceOnUse"
       y2="306"
       x2="825.75"
       y1="417.75"
       x1="652.75"
       id="linearGradient5791"
       xlink:href="#linearGradient5785" />
    <linearGradient
       id="linearGradient5785">
      <stop
         id="stop5787"
         offset="0"
         style="stop-color:#006680;stop-opacity:1;" />
      <stop
         id="stop5789"
         offset="1"
         style="stop-color:#ffffff;stop-opacity:1" />
    </linearGradient>
    <filter
       id="filter5823"
       style="color-interpolation-filters:sRGB">
      <feGaussianBlur
         id="feGaussianBlur5825"
         result="fbSourceGraphic"
         stdDeviation="0.01" />
      <feColorMatrix
         id="feColorMatrix5933"
         values="0 0 0 -1 0 0 0 0 -1 0 0 0 0 -1 0 0 0 0 1 0"
         in="fbSourceGraphic"
         result="fbSourceGraphicAlpha" />
      <feGaussianBlur
         in="fbSourceGraphic"
         result="blur"
         stdDeviation="2.61391"
         id="feGaussianBlur5935" />
      <feComposite
         result="composite1"
         operator="atop"
         in="fbSourceGraphic"
         in2="blur"
         id="feComposite5937" />
      <feComposite
         result="composite2"
         operator="in"
         in2="composite1"
         id="feComposite5939" />
      <feComposite
         result="composite3"
         operator="in"
         in2="composite2"
         id="feComposite5941" />
    </filter>
    <linearGradient
       gradientUnits="userSpaceOnUse"
       y2="367.75"
       x2="656.5"
       y1="425.25"
       x1="656.5"
       id="linearGradient5777"
       xlink:href="#linearGradient5771" />
    <linearGradient
       id="linearGradient5771">
      <stop
         id="stop5773"
         offset="0"
         style="stop-color:#f9f9f9;stop-opacity:1;" />
      <stop
         id="stop5775"
         offset="1"
         style="stop-color:#f9f9f9;stop-opacity:0;" />
    </linearGradient>
    <filter
       id="filter5767"
       style="color-interpolation-filters:sRGB">
      <feGaussianBlur
         id="feGaussianBlur5769"
         result="fbSourceGraphic"
         stdDeviation="0.01 0.01" />
      <feColorMatrix
         id="feColorMatrix6053"
         values="0 0 0 -1 0 0 0 0 -1 0 0 0 0 -1 0 0 0 0 1 0"
         in="fbSourceGraphic"
         result="fbSourceGraphicAlpha" />
      <feGaussianBlur
         in="fbSourceGraphic"
         result="blur"
         stdDeviation="1.11"
         id="feGaussianBlur6055" />
      <feComposite
         result="composite1"
         operator="atop"
         in="fbSourceGraphic"
         in2="blur"
         id="feComposite6057" />
      <feComposite
         result="composite2"
         operator="in"
         in2="composite1"
         id="feComposite6059" />
      <feComposite
         result="composite3"
         operator="in"
         in2="composite2"
         id="feComposite6061" />
    </filter>
    <filter
       id="filter5486"
       style="color-interpolation-filters:sRGB">
      <feGaussianBlur
         id="feGaussianBlur5488"
         result="blur"
         stdDeviation="0.19 1.57" />
    </filter>
    <filter
       id="filter5428"
       style="color-interpolation-filters:sRGB">
      <feGaussianBlur
         id="feGaussianBlur5430"
         result="blur"
         stdDeviation="6.51977 1.83" />
    </filter>
    <radialGradient
       gradientUnits="userSpaceOnUse"
       gradientTransform="matrix(1.3496196,1.077327,-0.62386298,0.78154513,89.669798,-1106.916)"
       r="28.861961"
       fy="129.41629"
       fx="1015.09"
       cy="129.41629"
       cx="1015.09"
       id="radialGradient5368"
       xlink:href="#linearGradient5362" />
    <linearGradient
       id="linearGradient5362">
      <stop
         id="stop5364"
         offset="0"
         style="stop-color:#00aad4;stop-opacity:1;" />
      <stop
         id="stop5366"
         offset="1"
         style="stop-color:#00aad4;stop-opacity:0;" />
    </linearGradient>
    <radialGradient
       gradientUnits="userSpaceOnUse"
       gradientTransform="matrix(1.4393032,-0.02791693,0.01814147,0.93542923,-425.37831,32.894316)"
       r="51.449078"
       fy="130.34987"
       fx="1007.9979"
       cy="130.34987"
       cx="1007.9979"
       id="radialGradient5360"
       xlink:href="#linearGradient5354" />
    <linearGradient
       id="linearGradient5354">
      <stop
         id="stop5356"
         offset="0"
         style="stop-color:#0088aa;stop-opacity:1;" />
      <stop
         id="stop5358"
         offset="1"
         style="stop-color:#0088aa;stop-opacity:0;" />
    </linearGradient>
    <linearGradient
       gradientTransform="matrix(0.07610158,-0.00857017,0.00887616,0.0734781,-11.22358,-10.065145)"
       gradientUnits="userSpaceOnUse"
       y2="374"
       x2="910.5"
       y1="363"
       x1="928"
       id="linearGradient6120"
       xlink:href="#linearGradient6114" />
    <linearGradient
       id="linearGradient6114">
      <stop
         id="stop6116"
         offset="0"
         style="stop-color:#ffffff;stop-opacity:1;" />
      <stop
         id="stop6118"
         offset="1"
         style="stop-color:#666666;stop-opacity:1" />
    </linearGradient>
    <linearGradient
       gradientTransform="matrix(0.07610158,-0.00857017,0.00887616,0.0734781,-11.22358,-10.065145)"
       gradientUnits="userSpaceOnUse"
       y2="376.5"
       x2="903"
       y1="353.5"
       x1="885.5"
       id="linearGradient6104"
       xlink:href="#linearGradient6098" />
    <linearGradient
       id="linearGradient6098">
      <stop
         id="stop6100"
         offset="0"
         style="stop-color:#ffffff;stop-opacity:1;" />
      <stop
         id="stop6102"
         offset="1"
         style="stop-color:#4d4d4d;stop-opacity:1" />
    </linearGradient>
    <linearGradient
       gradientTransform="matrix(0.03949078,0,0,0.03967826,2.423798,16.347891)"
       gradientUnits="userSpaceOnUse"
       y2="996.97949"
       x2="561.07458"
       y1="973.4964"
       x1="640.32489"
       id="linearGradient5310"
       xlink:href="#linearGradient5304" />
    <linearGradient
       id="linearGradient5304">
      <stop
         id="stop5306"
         offset="0"
         style="stop-color:#ffffff;stop-opacity:1;" />
      <stop
         id="stop5308"
         offset="1"
         style="stop-color:#999999;stop-opacity:1" />
    </linearGradient>
    <linearGradient
       gradientTransform="matrix(0.07610158,-0.00857017,0.00887616,0.0734781,-11.22358,-10.065145)"
       gradientUnits="userSpaceOnUse"
       y2="241"
       x2="886"
       y1="364"
       x1="922.5"
       id="linearGradient6136"
       xlink:href="#linearGradient6130" />
    <linearGradient
       id="linearGradient6130">
      <stop
         id="stop6132"
         offset="0"
         style="stop-color:#008066;stop-opacity:1;" />
      <stop
         id="stop6134"
         offset="1"
         style="stop-color:#164450;stop-opacity:1" />
    </linearGradient>
    <linearGradient
       gradientUnits="userSpaceOnUse"
       y2="836.28766"
       x2="408.70392"
       y1="483.67328"
       x1="735.39105"
       id="linearGradient5931"
       xlink:href="#linearGradient5925"
       gradientTransform="matrix(0.07661747,0,0,0.0739762,-7.176837,-17.598845)" />
    <linearGradient
       id="linearGradient5925">
      <stop
         id="stop5927"
         offset="0"
         style="stop-color:#ff6600;stop-opacity:1;" />
      <stop
         id="stop5929"
         offset="1"
         style="stop-color:#ffcc00;stop-opacity:1" />
    </linearGradient>
    <linearGradient
       gradientUnits="userSpaceOnUse"
       y2="320.14163"
       x2="838.21307"
       y1="659.07129"
       x1="424.57312"
       id="linearGradient3800"
       xlink:href="#linearGradient3794"
       gradientTransform="matrix(0.07661747,0,0,0.0739762,-7.176837,-17.598845)" />
    <linearGradient
       id="linearGradient3794">
      <stop
         id="stop3796"
         offset="0"
         style="stop-color:#008000;stop-opacity:1;" />
      <stop
         id="stop3798"
         offset="1"
         style="stop-color:#00ff00;stop-opacity:1" />
    </linearGradient>
  </defs>
  <metadata
     id="metadata4981">
    <rdf:RDF>
      <cc:Work
         rdf:about="">
        <dc:format>image/svg+xml</dc:format>
        <dc:type
           rdf:resource="http://purl.org/dc/dcmitype/StillImage" />
        <dc:title></dc:title>
      </cc:Work>
    </rdf:RDF>
  </metadata>
  <g
     transform="translate(8.5361848,8.9611934)"
     id="layer15" />
  <g
     transform="translate(8.5361848,8.9611934)"
     id="layer1">
    <ellipse
       ry="23.302504"
       rx="24.134502"
       style="fill:#ffffff;fill-opacity:1;stroke-width:0.92582315"
       id="circle3905"
       cx="26.059992"
       cy="27.142056" />
    <path
       id="path5276-8"
       d="M 60.046397,14.887567 C 58.744054,14.683417 57.21651,14.09377 55.460519,13.117367 53.82318,12.206949 52.868467,11.13609 52.433634,10.648906 51.794963,9.9333424 50.400272,8.3274216 49.651793,6.8209222 l -0.282415,-0.5684383 0.39761,-0.6874542 c 1.492609,-2.5806036 3.838475,-4.0253914 6.502826,-4.005005 1.417095,0.010844 2.594672,0.4094893 3.734383,1.2641955 2.108335,1.581123 3.765505,4.9345185 3.835771,7.7619698 0.03414,1.373482 -0.127995,2.165786 -0.627153,3.064738 -0.592641,1.067326 -1.639175,1.476046 -3.166418,1.236639 z"
       style="opacity:1;fill:#ffffff;stroke-width:0.92582315" />
    <path
       style="opacity:1;fill:#ffffff;fill-opacity:1;stroke-width:0.92582315"
       d="M 58.746542,8.8759555 C 58.694291,8.590093 58.599538,8.0496943 58.535987,7.6750673 58.385048,6.7852124 58.12418,5.615375 57.869766,4.6875225 57.541933,3.4919124 57.262791,2.8967946 56.848867,2.5111108 56.433472,2.1240614 56.031023,1.9756452 55.256195,1.9237508 54.70354,1.8867428 54.525149,1.8023322 54.335562,1.4881597 54.19042,1.2475884 54.166699,1.0751677 54.24978,0.86377323 54.371779,0.55311235 54.779094,0.40751616 55.507999,0.4140142 c 0.699915,0.00624 1.247884,0.11293798 1.599535,0.31145683 1.126153,0.63575667 2.019031,2.48174027 2.658574,5.49645107 0.187723,0.8849085 0.371307,1.9983293 0.435379,2.6404878 0.03392,0.339322 0.0264,0.3765985 -0.09166,0.4571525 C 59.788316,9.5389547 59.227571,9.6778676 59.042203,9.5840459 58.882053,9.5029939 58.845102,9.414489 58.746632,8.875946 Z"
       id="path5244-8" />
    <path
       id="path3514"
       d="m 48.404398,25.636193 c 0.0055,-0.108732 0.03267,-0.130849 0.06927,-0.05639 0.03312,0.06738 0.02905,0.147881 -0.009,0.178894 -0.0381,0.03101 -0.0652,-0.02411 -0.06022,-0.122503 z"
       style="fill:#ff6600;stroke-width:0.92582315" />
    <path
       id="path3532"
       d="m 48.41345,24.663938 c 0,-0.128338 0.02602,-0.18084 0.05783,-0.116671 0.03181,0.06417 0.03181,0.169172 0,0.233341 -0.03181,0.06417 -0.05783,0.01167 -0.05783,-0.11667 z"
       style="fill:#ff6600;stroke-width:0.92582315" />
    <path
       id="path4328"
       d="M 59.438942,9.7286854 C 59.490602,9.4427235 59.592056,8.9034605 59.664393,8.5303206 59.836229,7.6440068 60.003424,6.4582997 60.091364,5.5022446 60.204682,4.270293 60.152044,3.6189681 59.898841,3.1202649 59.644731,2.619793 59.318653,2.3479555 58.608406,2.0444711 58.101812,1.8280138 57.96384,1.6900075 57.896355,1.332283 c -0.05165,-0.2739087 -0.01316,-0.44382758 0.139498,-0.61528591 0.22425,-0.25200218 0.65857,-0.25501523 1.341644,-0.009309 0.655907,0.23592858 1.133521,0.51637611 1.394171,0.81862581 0.834718,0.967952 1.023375,2.9971606 0.56174,6.0420114 -0.135506,0.8937548 -0.355475,2.0010124 -0.521654,2.6258717 -0.08775,0.330201 -0.107967,0.362779 -0.247378,0.399714 -0.379663,0.100606 -0.955893,0.0469 -1.097106,-0.102248 -0.122006,-0.128849 -0.125543,-0.224215 -0.02824,-0.7629574 z"
       style="opacity:1;fill:#ffffff;fill-opacity:1;stroke-width:0.92582315" />
    <rect
       style="opacity:1;fill:#ffffff;stroke-width:0.93491304"
       id="rect5206-7"
       width="15.314984"
       height="17.254953"
       x="41.46793"
       y="-22.105051"
       rx="6.8349648"
       ry="2.6546075"
       transform="matrix(0.85878224,0.51234077,-0.67698358,0.73599812,0,0)" />
    <ellipse
       transform="matrix(0.99304246,-0.11775687,0.11397377,0.99348376,0,0)"
       ry="0.82980275"
       rx="1.3727436"
       cy="26.649046"
       cx="39.616943"
       id="path6172"
       style="opacity:0.31000001;fill:#ffffff;stroke-width:0.92546618" />
    <ellipse
       transform="matrix(0.99304246,-0.11775687,0.11397377,0.99348376,0,0)"
       ry="0.86588115"
       rx="0.66270381"
       cy="25.3382"
       cx="39.640606"
       id="path6174"
       style="opacity:0.31000001;fill:#ffffff;stroke-width:0.92546618" />
    <path
       id="path4335"
       d="M 9.5878921,52.584508 C 7.9513583,52.180278 6.2668765,51.198209 4.8202835,49.804962 2.3733536,47.448274 1.3002478,44.800723 0.93870995,40.228427 0.59064751,35.826552 1.1808005,29.661089 2.2634597,26.388467 L 2.557978,25.498209 2.4578351,26.981972 c -0.5502781,8.153212 -0.5088702,12.621138 0.143942,15.531056 0.5793024,2.582239 2.0817526,4.726268 4.063131,5.798152 0.8690658,0.470157 1.1774879,0.52409 3.0055746,0.525548 2.3133103,0.0018 3.4183113,-0.287689 5.7690933,-1.511604 4.088665,-2.128716 9.964252,-7.457455 15.782036,-14.313188 4.251235,-5.009692 10.548017,-14.000657 15.898769,-22.701319 1.055185,-1.715808 1.983162,-3.1603121 2.062174,-3.2100085 0.12323,-0.077509 4.407868,9.0410295 5.286291,11.2502385 0.606454,1.525218 0.487276,1.837853 -1.679392,4.405382 C 47.246316,29.324947 39.932806,37.025564 35.498565,40.962323 27.835836,47.765365 21.546868,51.481474 15.800071,52.602 13.927904,52.967042 11.10438,52.95909 9.5878921,52.584505 v 0 z"
       style="fill:#ffffff;fill-opacity:1;fill-rule:nonzero;stroke-width:0.92582315" />
    <path
       style="fill:#ffffff;fill-opacity:1;fill-rule:nonzero;stroke-width:0.92582315"
       d="M 9.5878921,52.584508 C 7.9513583,52.180278 6.2668765,51.198209 4.8202835,49.804962 2.3733536,47.448274 1.3002478,44.800723 0.93870995,40.228427 0.59064751,35.826552 1.1808005,29.661089 2.2634597,26.388467 L 2.557978,25.498209 2.4578351,26.981972 c -0.5502781,8.153212 -0.5088702,12.621138 0.143942,15.531056 0.5793024,2.582239 2.0817526,4.726268 4.063131,5.798152 0.8690658,0.470157 1.1774879,0.52409 3.0055746,0.525548 2.3133103,0.0018 3.4183113,-0.287689 5.7690933,-1.511604 4.088665,-2.128716 9.964252,-7.457455 15.782036,-14.313188 4.251235,-5.009692 10.548017,-14.000657 15.898769,-22.701319 1.055185,-1.715808 1.983162,-3.1603121 2.062174,-3.2100085 0.12323,-0.077509 4.407868,9.0410295 5.286291,11.2502385 0.606454,1.525218 0.487276,1.837853 -1.679392,4.405382 C 47.246316,29.324947 39.932806,37.025564 35.498565,40.962323 27.835836,47.765365 21.546868,51.481474 15.800071,52.602 13.927904,52.967042 11.10438,52.95909 9.5878921,52.584505 v 0 z"
       id="path3911" />
    <rect
       style="opacity:1;fill:#ffffff;fill-opacity:1;stroke-width:0.92167795"
       id="rect5197-8"
       width="14.857268"
       height="4.5367284"
       x="26.874249"
       y="29.714455"
       ry="2.2683642"
       transform="matrix(0.86812594,-0.49634399,0.49520821,0.86877433,0,0)" />
    <ellipse
       ry="22.192862"
       rx="22.985241"
       cy="27.229233"
       cx="26.035021"
       id="path3784"
       style="opacity:1;fill:url(#linearGradient3800);fill-opacity:1;stroke-width:0.92582315" />
    <path
       id="path5911"
       d="M 10.611536,51.499493 C 6.2776803,50.938999 2.7251443,47.539787 1.78298,43.051972 1.0805028,39.705858 1.2485809,33.634454 2.1458465,29.944349 c 0.432275,-1.777782 0.8469234,-3.173464 0.92144,-3.101516 0.074517,0.07195 -0.03855,2.004899 -0.2512601,4.295447 -0.4006856,4.314758 -0.2178909,9.51221 0.4116044,11.703288 0.9182174,3.196029 3.3631008,5.189886 6.3638738,5.189886 4.0855444,0 8.7025814,-2.690213 14.9534944,-8.712971 C 30.911046,33.184796 36.474776,26.129747 43.565953,15.1991 l 2.84142,-4.379885 2.816221,5.720652 c 2.620432,5.32294 2.779329,5.773991 2.285499,6.487852 -0.291905,0.421959 -2.64023,3.042642 -5.218508,5.823741 C 30.927986,45.422554 19.536224,52.653715 10.611536,51.499493 Z"
       style="fill:#ff6600;fill-opacity:1;fill-rule:nonzero;stroke-width:0.92582315" />
    <path
       id="path5921"
       d="M 9.9562904,51.317427 C 7.2651063,50.8255 4.232321,48.500324 2.9447867,45.941847 2.0654096,44.194426 1.7685369,42.990986 1.5296428,40.205247 1.2088884,36.464935 1.7545197,30.967272 2.7254293,28.156762 l 0.2710581,-0.784636 -0.085359,1.220545 C 2.4765855,34.8062 2.4401463,36.115635 2.628426,38.751312 c 0.1088505,1.523757 0.3215352,3.235352 0.472634,3.803547 0.610973,2.297512 1.8744901,3.961521 3.7209673,4.900387 0.8919216,0.453509 1.1217916,0.49165 2.9536732,0.49008 2.2923845,-0.002 3.6210315,-0.374362 5.9746995,-1.674603 4.410113,-2.436287 10.71071,-8.252814 16.472688,-15.207104 3.546844,-4.280784 8.713624,-11.559061 13.473943,-18.98032 l 0.706456,-1.10135 1.161135,2.353908 c 2.1263,4.310535 3.516193,7.228843 3.768162,7.911875 0.490567,1.329816 0.444436,1.418149 -2.390615,4.577454 C 34.912463,41.459524 24.102563,49.667395 15.45582,51.25111 c -1.614074,0.295629 -4.082213,0.325391 -5.4995296,0.06632 z"
       style="fill:#ff6600;fill-opacity:1;fill-rule:nonzero;stroke-width:0.92582315" />
    <path
       id="path5923"
       d="M 9.6193245,51.24486 C 8.094859,50.888589 6.5240974,50.023039 5.173582,48.795087 2.8891677,46.717992 1.8826846,44.384557 1.5329925,40.354723 1.1963347,36.475095 1.7278967,31.041113 2.7262208,28.156762 l 0.271576,-0.784636 -0.08894,1.307726 c -0.4887221,7.185901 -0.4373094,11.123745 0.1787165,13.688425 0.5466564,2.275879 1.9513274,4.165531 3.7987018,5.110255 0.8102887,0.414369 1.0975253,0.461902 2.7991312,0.463185 2.1532567,0.0015 3.1809687,-0.253552 5.3655757,-1.332257 3.799638,-1.876167 9.253343,-6.572696 14.648848,-12.615049 3.942664,-4.415334 9.777873,-12.339595 14.733342,-20.007995 0.977239,-1.512241 1.836854,-2.785366 1.910255,-2.829167 0.114481,-0.06832 4.128926,7.968385 4.952931,9.915491 0.568884,1.344262 0.458849,1.619807 -1.550504,3.882719 C 44.605164,30.744853 37.819856,37.531852 33.703758,41.001551 26.59081,46.99747 20.74768,50.272686 15.401732,51.260273 13.660152,51.582004 11.031966,51.575 9.6193245,51.244861 v 2e-6 z"
       style="fill:url(#linearGradient5931);fill-opacity:1;fill-rule:nonzero;stroke-width:0.92582315" />
    <rect
       style="opacity:1;fill:#004455;stroke-width:0.91692466"
       id="rect5193"
       width="16.658501"
       height="4.4756503"
       x="17.470062"
       y="46.566219"
       ry="2.2378252"
       transform="matrix(0.70283221,-0.71135567,0.67587956,0.73701209,0,0)" />
    <path
       id="path5242"
       d="m 60.096069,5.8587403 c 3.06e-4,-0.1556037 0.0027,-0.4491834 0.0053,-0.6523998 0.0062,-0.482705 -0.0133,-1.1261589 -0.04974,-1.6432615 C 60.004678,2.8967517 59.930001,2.5486131 59.778758,2.2898679 59.626928,2.030213 59.461274,1.8960949 59.123194,1.7590947 58.882047,1.6613787 58.810146,1.5922753 58.752115,1.402485 c -0.04444,-0.1453277 -0.0408,-0.2380703 0.01318,-0.3358468 0.07933,-0.14369661 0.271207,-0.16128667 0.592712,-0.054341 0.308726,0.1026909 0.542093,0.2358658 0.681202,0.3887368 0.445503,0.4895694 0.688845,1.5733104 0.724578,3.2268613 0.01048,0.4853674 4.6e-4,1.0885945 -0.02383,1.4305621 -0.01282,0.1807009 -0.01917,0.1989597 -0.07792,0.2239385 -0.160017,0.068034 -0.419129,0.060359 -0.493351,-0.014614 -0.06412,-0.064769 -0.0732,-0.1158971 -0.07261,-0.4090426 z"
       style="opacity:1;fill:url(#linearGradient6136);fill-opacity:1;stroke-width:0.92582315" />
    <rect
       transform="matrix(0.62519484,-0.78046871,0.74644533,0.66544674,0,0)"
       ry="2.226331"
       y="45.437859"
       x="10.591507"
       height="4.452662"
       width="16.747446"
       id="rect5185"
       style="opacity:1;fill:#216778;stroke-width:0.91687292" />
    <rect
       style="opacity:1;fill:#006680;stroke-width:0.92161846"
       id="rect5206"
       width="12.999033"
       height="15.192659"
       x="42.138542"
       y="-31.0709"
       rx="5.801373"
       ry="2.3373318"
       transform="matrix(0.75639993,0.65410943,-0.66665781,0.74536392,0,0)" />
    <rect
       style="opacity:1;fill:#216778;fill-opacity:1;stroke-width:0.91578662"
       id="rect5197"
       width="11.558343"
       height="3.8358092"
       x="32.485069"
       y="30.90103"
       ry="1.9179046"
       transform="matrix(0.86854844,-0.49560429,0.39088055,0.92044141,0,0)" />
    <ellipse
       transform="matrix(0.54176015,-0.84053313,0.76246181,0.64703322,0,0)"
       ry="6.1300387"
       rx="2.8071945"
       cy="53.195187"
       cx="28.863243"
       id="path5257"
       style="opacity:1;fill:url(#linearGradient5310);fill-opacity:1;stroke-width:0.91210407" />
    <path
       id="path5276"
       d="M 59.688446,13.984092 C 58.595042,13.806856 57.312566,13.294944 55.838295,12.447265 54.46364,11.656869 53.662093,10.727186 53.297021,10.30423 52.760815,9.6830011 51.589878,8.288795 50.96148,6.9809024 l -0.237106,-0.4934997 0.33382,-0.5968244 c 1.253145,-2.240393 3.222656,-3.4947091 5.459557,-3.4770103 1.189747,0.00941 2.178402,0.3555045 3.135265,1.0975316 1.770089,1.372678 3.161394,4.283983 3.220387,6.7386814 0.02866,1.192411 -0.107461,1.880263 -0.526538,2.660702 -0.497561,0.926617 -1.376196,1.281454 -2.658419,1.073609 z"
       style="opacity:1;fill:#006680;stroke-width:0.92582315" />
    <ellipse
       transform="matrix(0.99371863,-0.11190744,0.11992821,0.99278257,0,0)"
       ry="2.2718501"
       rx="2.0487041"
       cy="15.358945"
       cx="52.105202"
       id="path5320"
       style="opacity:1;fill:#004455;stroke-width:0.92566371" />
    <path
       id="path5336"
       d="M 59.554811,10.117425 C 59.228456,9.8073622 58.733614,9.0347722 58.325511,8.1981644 58.184603,7.9093097 58.0333,7.6003848 57.989281,7.5116648 c -0.04402,-0.088722 -0.06933,-0.1680937 -0.05625,-0.1763815 0.05227,-0.033121 0.640913,0.045712 0.931019,0.1246877 0.392822,0.1069507 0.756454,0.2595266 1.148504,0.4819497 0.49059,0.278323 0.677857,0.5004102 0.724527,0.8592468 0.02274,0.1748446 0.01361,0.2434002 -0.06608,0.4962196 -0.09874,0.3132801 -0.360953,0.7588889 -0.554519,0.9423629 -0.143898,0.136386 -0.332641,0.09528 -0.561675,-0.122325 z"
       style="opacity:1;fill:url(#linearGradient6104);fill-opacity:1;stroke-width:0.92582315" />
    <path
       style="opacity:1;fill:url(#linearGradient6120);fill-opacity:1;stroke-width:0.92582315"
       d="m 62.041965,10.153084 c 0.178439,-0.137645 0.403622,-0.5886377 0.559408,-1.1203544 0.05378,-0.1835789 0.111725,-0.3797133 0.128754,-0.4358497 0.01704,-0.056143 0.02257,-0.111131 0.01231,-0.1222045 -0.04102,-0.044255 -0.434968,-0.1808481 -0.62311,-0.2160211 -0.254759,-0.047615 -0.482532,-0.048763 -0.719426,-0.0036 -0.296427,0.056495 -0.392196,0.1708632 -0.370513,0.4424807 0.01057,0.1323488 0.02715,0.1903624 0.120024,0.4199299 0.115081,0.2844653 0.362727,0.7303976 0.523702,0.9430501 0.119681,0.158071 0.243617,0.18919 0.368854,0.09259 z"
       id="path5340" />
    <path
       transform="matrix(0.03210559,-0.00361556,0.00431254,0.0356998,19.877285,8.5339035)"
       d="m 1060.9449,166.32313 -19.5237,-17.03287 12.9604,22.43479 -16.4538,-20.01405 9.0909,24.26202 -12.9352,-22.4493 4.9736,25.42744 -9.0638,-24.27219 0.7205,25.89926 -4.945,-25.43299 -3.5522,25.66463 -0.6915,-25.90006 -7.728,24.72993 3.5809,-25.66063 -11.693,23.12066 7.7557,-24.72125 -15.33905,20.88072 11.71885,-23.10755 -18.56666,18.07121 15.36246,-20.86352 -21.28791,14.76876 18.58691,-18.05039 -23.42839,11.06346 21.30439,-14.74489 -24.92983,7.05637 23.44083,-11.0372 -25.75133,2.85682 24.93777,-7.02844 -25.87031,-1.42067 25.75449,-2.82796 -25.28364,-5.65941 25.8687,1.44966 -24.00729,-9.74377 25.27731,5.68773 -22.07612,-13.56234 23.99632,9.77066 -19.54268,-17.010979 22.06088,13.587079 -16.47626,-19.9956 19.52366,17.03287 -12.9604,-22.434789 16.4538,20.014049 -9.0909,-24.262015 12.9352,22.449295 -4.9736,-25.427436 9.0638,24.272186 -0.7205,-25.899265 4.9451,25.432995 3.5521,-25.664629 0.6915,25.900059 7.728,-24.729931 -3.5809,25.660631 11.693,-23.120659 -7.7557,24.721249 15.3391,-20.880716 -11.7189,23.107546 18.5667,-18.071212 -15.3625,20.863522 21.2879,-14.768765 -18.5869,18.050395 23.4284,-11.06346 -21.3044,14.74489 24.9298,-7.05637 -23.4408,11.0372 25.7513,-2.85682 -24.9377,7.02844 25.8703,1.42067 -25.7545,2.82796 25.2836,5.65941 -25.8687,-1.44966 24.0073,9.74377 -25.2773,-5.68773 22.0761,13.56234 -23.9963,-9.77066 19.5427,17.01098 -22.0609,-13.58708 z"
       id="path5350"
       style="opacity:1;fill:url(#radialGradient5360);fill-opacity:1" />
    <path
       transform="matrix(0.03819327,-0.00430113,0.00486212,0.04024934,0.2421154,11.859723)"
       d="m 1398.3934,109.33893 c -9.4965,7.88938 0.8737,-15.851484 -9.3102,-8.87199 -10.1839,6.9795 15.6994,5.87416 4.9149,11.88423 -10.7844,6.01007 3.7716,-15.421042 -7.5214,-10.43167 -11.293,4.98937 14.3527,8.6589 2.6476,12.585 -11.7052,3.92611 6.5409,-14.46545 -5.4766,-11.63611 -12.0175,2.82934 12.5173,11.14877 0.29,12.85721 -12.2273,1.70843 9.0876,-13.01726 -3.2452,-12.44431 -12.3327,0.57296 10.2556,13.259 -2.0774,12.69159 -12.333,-0.56742 11.3248,-11.12578 -0.9033,-12.82872 -12.228,-1.70294 7.6446,14.91769 -4.3741,12.09376 -12.0188,-2.82394 13.1763,-8.85543 1.4693,-12.77627 -11.7069,-3.920842 4.7734,16.06839 -6.5218,11.08409 -11.2953,-4.98429 14.5791,-6.2835 3.7919,-12.28873 -10.7871,-6.005224 1.7395,16.6719 -8.4475,9.69698 -10.187,-6.97492 15.4855,-3.49762 5.9854,-11.382726 -9.5,-7.885107 -1.3535,16.707656 -10.0855,7.979636 -8.7319,-8.728019 15.8645,-0.59261 7.9752,-10.089084 -7.8894,-9.496473 -4.4006,16.174464 -11.3801,5.990564 -6.9795,-10.183902 15.7033,2.33257 9.6932,-8.45188 -6.0101,-10.784446 -7.2977,15.09047 -12.287,3.797488 -4.9894,-11.292981 15.0072,5.178312 11.0811,-6.526853 -3.9261,-11.705169 -9.9462,13.492585 -12.7756,1.475093 -2.8293,-12.017491 13.8003,7.847722 12.0918,-4.379563 -1.7084,-12.227285 -12.2561,11.435225 -12.8291,-0.897535 -0.573,-12.33276 12.1232,10.249885 12.6906,-2.083132 0.5675,-12.333016 -14.1487,8.988455 -12.4457,-3.239597 1.7029,-12.228052 10.0334,12.302999 12.8573,0.284237 2.824,-12.018761 -15.5594,6.235593 -11.6386,-5.471339 3.9209,-11.706932 7.6019,13.93715 12.5862,2.641928 4.9843,-11.295223 -16.4402,3.270384 -10.435,-7.516763 6.0052,-10.787146 4.9115,15.096689 11.8864,4.909651 6.9749,-10.187038 -16.7613,0.193807 -8.8761,-9.306211 7.8851,-9.500017 2.0538,15.742127 10.7818,7.010181 8.7281,-8.731946 -16.5114,-2.88937 -7.015,-10.778747 9.4965,-7.889377 -0.8737,15.851486 9.3102,8.871988 10.1839,-6.979498 -15.6994,-5.874153 -4.915,-11.884226 10.7845,-6.010073 -3.7715,15.421042 7.5215,10.43167 11.293,-4.989372 -14.3528,-8.658898 -2.6476,-12.585002 11.7052,-3.926103 -6.5409,14.465453 5.4766,11.636115 12.0175,-2.829339 -12.5173,-11.148776 -0.29,-12.857211 12.2272,-1.708435 -9.0876,13.01726 3.2451,12.444304 12.3328,-0.572955 -10.2555,-13.258995 2.0775,-12.691583 12.333,0.567412 -11.3248,11.125781 0.9033,12.828719 12.228,1.702939 -7.6447,-14.917694 4.3741,-12.093758 12.0188,2.823937 -13.1763,8.855425 -1.4694,12.776267 11.707,3.920841 -4.7733,-16.068391 6.5219,-11.084095 11.2952,4.984295 -14.5791,6.283509 -3.7919,12.288734 10.7871,6.005224 -1.7396,-16.671897 8.4475,-9.696977 10.187,6.97492 -15.4855,3.497616 -5.9855,11.382723 9.5,7.885108 1.3536,-16.707661 10.0855,-7.979639 8.732,8.728022 -15.8645,0.592616 -7.9751,10.089088 7.8894,9.496472 4.4006,-16.174466 11.3801,-5.990565 6.9795,10.183902 -15.7033,-2.332566 -9.6932,8.45188 6.0101,10.784446 7.2976,-15.090469 12.287,-3.797488 4.9894,11.292981 -15.0073,-5.178315 -11.0812,6.526854 3.9261,11.705168 9.9463,-13.492585 12.7756,-1.475094 2.8294,12.017491 -13.8002,-7.847721 -12.0917,4.379564 1.7084,12.227285 12.2561,-11.435226 12.8291,0.897534 0.5729,12.33276 -12.1233,-10.249884 -12.6907,2.083132 -0.5674,12.333018 14.1487,-8.988454 12.4458,3.239597 -1.7029,12.228051 -10.0334,-12.302999 -12.8573,-0.284237 -2.824,12.018758 15.5594,-6.235592 11.6385,5.47134 -3.9208,11.706928 -7.6019,-13.937151 -12.5862,-2.641928 -4.9843,11.295226 16.4403,-3.270384 10.4351,7.516766 -6.0052,10.78714 -4.9115,-15.096692 -11.8864,-4.909655 -6.975,10.187035 16.7612,-0.193806 8.8761,9.306215 -7.8851,9.50001 -2.0538,-15.742131 -10.7819,-7.010185 -8.728,8.731945 16.5115,2.889375 7.0151,10.778745 z"
       id="path5352"
       style="opacity:1;fill:url(#radialGradient5368);fill-opacity:1" />
    <path
       transform="matrix(0.03819327,-0.00430113,0.00486212,0.04024934,0.2421154,11.859723)"
       id="path5374"
       d="m 1379.3258,141.22426 c -5.912,-0.62141 -5.563,-0.97169 0.717,-0.71953 3.3827,0.13582 7.688,0.21426 9.5672,0.17431 7.7907,-0.16565 14.766,-3.33127 20.8534,-9.46393 15.0015,-15.11295 18.7542,-43.81553 8.5762,-65.5958 -7.076,-15.14213 -21.8893,-26.85497 -36.1706,-28.59993 -8.0954,-0.98913 -16.9004,1.60184 -24.5412,7.2215 -5.8436,4.29785 -12.9992,12.35085 -17.4581,19.64769 -0.9937,1.62602 -1.8644,2.78304 -1.9351,2.57114 -0.2057,-0.61717 2.4632,-5.70803 4.9707,-9.48163 3.1247,-4.70235 8.3517,-11.42509 10.8525,-13.95801 3.4482,-3.49257 10.16,-6.89138 17.9103,-9.069699 6.5573,-1.84299 9.142,-2.175804 16.7711,-2.159452 6.1053,0.01308 7.3556,0.110705 9.7381,0.760291 20.6068,5.61833 35.9185,23.19903 39.4793,45.32967 0.5557,3.45357 0.4612,10.79437 -0.1873,14.55358 -2.5325,14.67993 -10.6981,28.45429 -24.2469,40.90157 -6.538,6.00642 -14.2855,8.34501 -27.247,8.22447 -2.6854,-0.025 -6.1277,-0.17628 -7.6496,-0.33624 z"
       style="opacity:1;fill:#ffffff;filter:url(#filter5428)" />
    <ellipse
       transform="matrix(0.03819327,-0.00430113,0.00486212,0.04024934,0.2421154,11.859723)"
       ry="9.4228191"
       rx="9.6644297"
       cy="87.194626"
       cx="1379.5973"
       id="path5432"
       style="opacity:1;fill:#ffffff;filter:url(#filter5486)" />
    <path
       id="path5494"
       d="m 42.540335,15.158305 c -0.58939,-0.03763 -1.05013,-0.297021 -1.324416,-0.745626 -0.07353,-0.120259 -0.143216,-0.242935 -0.154855,-0.272615 -0.01959,-0.04991 0.03963,-0.08047 0.789196,-0.407195 0.445709,-0.194279 0.828445,-0.365424 0.850535,-0.380323 0.03605,-0.02433 0.02239,-0.07519 -0.134202,-0.499464 -0.09589,-0.25981 -0.171314,-0.476045 -0.167604,-0.480522 0.01187,-0.01435 0.789408,-0.406128 0.832825,-0.419642 0.03484,-0.01085 0.09099,0.124917 0.337446,0.815969 0.162598,0.45594 0.299471,0.832182 0.304156,0.836096 0.01211,0.0101 5.539181,-2.980631 5.557695,-3.007309 0.01817,-0.02619 -0.322312,-0.8645049 -0.511405,-1.2591215 -0.0732,-0.1527618 -0.180433,-0.3546023 -0.238301,-0.4485329 l -0.105211,-0.1707826 0.745062,-0.3657213 0.745062,-0.3657221 0.04481,0.083023 c 0.02465,0.04566 0.09733,0.1990865 0.161519,0.3409385 l 0.116716,0.2579126 0.242095,-0.1658917 c 0.133154,-0.09124 0.253114,-0.1671319 0.266584,-0.1686482 0.03343,-0.00377 0.139465,0.3115623 0.216156,0.6427894 0.09173,0.3962323 0.09278,0.7482409 0.0029,1.0189181 -0.08574,0.2582967 -0.35475,0.5804647 -0.531912,0.7541347 -0.233864,0.229243 -1.89917,1.22832 -6.031428,3.522905 -1.487309,0.825884 -1.557036,0.861426 -1.719538,0.87658 -0.09316,0.0087 -0.225399,0.01222 -0.293869,0.0079 z"
       style="opacity:1;fill:#004455;stroke-width:0.92582315" />
    <path
       id="path5508"
       d="m 44.127788,13.166858 c -0.233732,-0.05849 -0.38647,-0.289315 -0.343377,-0.518902 0.02294,-0.122173 0.139771,-0.274394 0.247388,-0.322321 0.39578,-0.176254 0.801313,0.160591 0.668083,0.55491 -0.0714,0.211319 -0.338203,0.344844 -0.572094,0.286313 z"
       style="opacity:1;fill:#536c67;stroke-width:0.92582315" />
    <path
       style="opacity:1;fill:#536c67;stroke-width:0.92582315"
       d="m 46.255208,12.040153 c -0.233724,-0.05849 -0.386469,-0.289315 -0.343368,-0.518904 0.02293,-0.122172 0.139771,-0.274394 0.247387,-0.322322 0.39578,-0.176253 0.801313,0.160591 0.668084,0.554911 -0.07141,0.21132 -0.338211,0.344845 -0.572103,0.286315 z"
       id="path5510" />
    <path
       id="path5512"
       d="m 48.234992,10.930072 c -0.233732,-0.05849 -0.386469,-0.289314 -0.343376,-0.518902 0.02294,-0.122173 0.139771,-0.274394 0.247395,-0.322323 0.395773,-0.1762518 0.801313,0.160592 0.668076,0.55491 -0.0714,0.211321 -0.338203,0.344846 -0.572095,0.286315 z"
       style="opacity:1;fill:#536c67;stroke-width:0.92582315" />
    <path
       transform="matrix(0.01868744,-0.00210448,0.00228659,0.01892872,29.302218,11.568652)"
       d="m 794.41612,152.21476 c 40.89274,-58.110739 -52.32632,50.70222 -6.24623,-3.38752 46.08008,-54.089745 -46.53725,55.23584 4.33704,5.62857 50.87429,-49.60727 -60.75187,40.22398 -5.51743,-4.47759 55.23445,-44.70157 -55.89442,45.74416 3.22895,6.32967 59.12337,-39.41449 -67.10859,28.37597 -4.60072,-5.41517 62.50787,-33.79114 -63.34818,34.6947 2.01089,6.8152 65.35908,-27.87949 -71.18001,15.56164 -3.52735,-6.16834 67.65266,-21.72999 -68.64469,22.46375 0.72437,7.06866 69.36905,-15.39509 -72.82749,2.21738 -2.33387,-6.71147 70.49362,-8.92885 -71.60359,9.46784 -0.58683,7.08141 71.01676,-2.38643 -71.9949,-11.20239 -1.06089,-7.02604 70.934,4.17635 -72.12412,-3.85049 -1.87805,6.85301 70.24607,10.70349 -68.71062,-24.24068 0.2482,-7.10135 68.95881,17.13933 -70.18854,-17.0377 -3.10531,6.39123 67.08324,23.42893 -63.08647,-36.45347 1.54885,-6.93483 64.63532,29.51865 -65.86278,-29.64471 -4.22682,5.71181 61.63596,35.35652 -55.314,-47.42489 2.79674,-6.53215 58.11074,40.89275 -59.29413,-41.2422 -5.20439,4.83788 54.08975,46.08009 -45.65787,-56.781312 3.94941,-5.90702 49.60727,50.87428 -50.70631,-51.435252 -6.00474,3.7992 44.70157,55.23445 -34.44692,-64.20412 4.96757,-5.08075 39.41449,59.12337 -40.39173,-59.876724 -6.60059,2.63114 33.79114,62.50787 -22.06292,-69.44052 5.81657,-4.08145 27.8795,65.35908 -28.70166,-66.279164 -6.97167,1.37349 21.72999,67.65266 -8.9276,-72.312214 6.46749,-2.94316 15.3951,69.36906 -16.03419,-70.424556 -7.10534,0.0691 8.92885,70.49362 4.51175,-72.721404 6.89818,-1.70465 2.38643,71.01676 -2.82071,-72.17172 -6.99706,-1.23772 -4.17635,70.93401 17.79745,-70.654151 7.09396,-0.40808 -10.7035,70.24606 10.48884,-71.46117 -6.65049,-2.50235 -17.13933,68.95881 30.47708,-66.180865 7.04815,0.90237 -23.42893,67.08323 23.4412,-68.317088 -6.07744,-3.68177 -29.51865,64.63532 42.11885,-59.453856 6.76233,2.1821 -35.35652,61.63596 35.5953,-62.846545 -5.29744,-4.7358 -40.89274,58.11074 52.32632,-50.702226 6.24623,3.38752 -46.08008,54.08974 46.53725,-55.235846 -4.33704,-5.62857 -50.87428,49.60727 60.75188,-40.223987 5.51743,4.47758 -55.23445,44.70157 55.89442,-45.74415 -3.22895,-6.32966 -59.12337,39.41449 67.10859,-28.37597 4.60072,5.41517 -62.50786,33.79114 63.34818,-34.6947 -2.01089,-6.81521 -65.35908,27.8795 71.18001,-15.56164 3.52735,6.16835 -67.65266,21.72999 68.64469,-22.46376 -0.72436,-7.06866 -69.36906,15.39509 72.82748,-2.21738 2.33386,6.71147 -70.49362,8.92885 71.60359,-9.46785 0.58683,-7.08141 -71.01676,2.38643 71.9949,11.20238 1.0609,7.02604 -70.93401,-4.17635 72.12411,3.85049 1.87804,-6.85301 -70.24606,-10.7035 68.71062,24.24068 -0.2482,7.10135 -68.95881,-17.13933 70.18854,17.0377 3.10531,-6.39123 -67.08323,-23.42893 63.08647,36.45347 -1.54885,6.93482 -64.63531,-29.51864 65.86278,29.64471 4.22682,-5.7118 -61.63596,-35.356524 55.314,47.42489 -2.79674,6.53214 -58.11074,-40.892739 59.29413,41.24221 5.20439,-4.83787 -54.08975,-46.08009 45.65787,56.78131 -3.94941,5.90702 -49.60727,-50.874285 50.70631,51.43525 6.00474,-3.7992 -44.70157,-55.234447 34.44692,64.20412 -4.96757,5.08075 -39.41449,-59.12337 40.39173,59.87672 6.60059,-2.63115 -33.79114,-62.507866 22.06292,69.44053 -5.81657,4.08145 -27.87949,-65.359071 28.70166,66.27917 6.97167,-1.37349 -21.72998,-67.652656 8.9276,72.31222 -6.46749,2.94317 -15.3951,-69.369058 16.0342,70.42455 7.10534,-0.0691 -8.92885,-70.493624 -4.51175,72.7214 -6.89818,1.70465 -2.38643,-71.01676 2.82071,72.17172 6.99706,1.23771 4.17635,-70.933999 -17.79745,70.65416 -7.09396,0.40809 10.7035,-70.246063 -10.48883,71.46117 6.65049,2.50235 17.13933,-68.958812 -30.47708,66.18086 -7.04815,-0.90237 23.42893,-67.08323 -23.4412,68.31709 6.07744,3.68177 29.51865,-64.635319 -42.11885,59.45385 -6.76233,-2.1821 35.35652,-61.63596 -35.5953,62.84654 5.29744,4.7358 z"
       id="path5514"
       style="opacity:1;fill:#cccccc" />
    <path
       style="opacity:1;fill:#cccccc"
       id="path5516"
       d="m 794.41612,152.21476 c 40.89274,-58.110739 -52.32632,50.70222 -6.24623,-3.38752 46.08008,-54.089745 -46.53725,55.23584 4.33704,5.62857 50.87429,-49.60727 -60.75187,40.22398 -5.51743,-4.47759 55.23445,-44.70157 -55.89442,45.74416 3.22895,6.32967 59.12337,-39.41449 -67.10859,28.37597 -4.60072,-5.41517 62.50787,-33.79114 -63.34818,34.6947 2.01089,6.8152 65.35908,-27.87949 -71.18001,15.56164 -3.52735,-6.16834 67.65266,-21.72999 -68.64469,22.46375 0.72437,7.06866 69.36905,-15.39509 -72.82749,2.21738 -2.33387,-6.71147 70.49362,-8.92885 -71.60359,9.46784 -0.58683,7.08141 71.01676,-2.38643 -71.9949,-11.20239 -1.06089,-7.02604 70.934,4.17635 -72.12412,-3.85049 -1.87805,6.85301 70.24607,10.70349 -68.71062,-24.24068 0.2482,-7.10135 68.95881,17.13933 -70.18854,-17.0377 -3.10531,6.39123 67.08324,23.42893 -63.08647,-36.45347 1.54885,-6.93483 64.63532,29.51865 -65.86278,-29.64471 -4.22682,5.71181 61.63596,35.35652 -55.314,-47.42489 2.79674,-6.53215 58.11074,40.89275 -59.29413,-41.2422 -5.20439,4.83788 54.08975,46.08009 -45.65787,-56.781312 3.94941,-5.90702 49.60727,50.87428 -50.70631,-51.435252 -6.00474,3.7992 44.70157,55.23445 -34.44692,-64.20412 4.96757,-5.08075 39.41449,59.12337 -40.39173,-59.876724 -6.60059,2.63114 33.79114,62.50787 -22.06292,-69.44052 5.81657,-4.08145 27.8795,65.35908 -28.70166,-66.279164 -6.97167,1.37349 21.72999,67.65266 -8.9276,-72.312214 6.46749,-2.94316 15.3951,69.36906 -16.03419,-70.424556 -7.10534,0.0691 8.92885,70.49362 4.51175,-72.721404 6.89818,-1.70465 2.38643,71.01676 -2.82071,-72.17172 -6.99706,-1.23772 -4.17635,70.93401 17.79745,-70.654151 7.09396,-0.40808 -10.7035,70.24606 10.48884,-71.46117 -6.65049,-2.50235 -17.13933,68.95881 30.47708,-66.180865 7.04815,0.90237 -23.42893,67.08323 23.4412,-68.317088 -6.07744,-3.68177 -29.51865,64.63532 42.11885,-59.453856 6.76233,2.1821 -35.35652,61.63596 35.5953,-62.846545 -5.29744,-4.7358 -40.89274,58.11074 52.32632,-50.702226 6.24623,3.38752 -46.08008,54.08974 46.53725,-55.235846 -4.33704,-5.62857 -50.87428,49.60727 60.75188,-40.223987 5.51743,4.47758 -55.23445,44.70157 55.89442,-45.74415 -3.22895,-6.32966 -59.12337,39.41449 67.10859,-28.37597 4.60072,5.41517 -62.50786,33.79114 63.34818,-34.6947 -2.01089,-6.81521 -65.35908,27.8795 71.18001,-15.56164 3.52735,6.16835 -67.65266,21.72999 68.64469,-22.46376 -0.72436,-7.06866 -69.36906,15.39509 72.82748,-2.21738 2.33386,6.71147 -70.49362,8.92885 71.60359,-9.46785 0.58683,-7.08141 -71.01676,2.38643 71.9949,11.20238 1.0609,7.02604 -70.93401,-4.17635 72.12411,3.85049 1.87804,-6.85301 -70.24606,-10.7035 68.71062,24.24068 -0.2482,7.10135 -68.95881,-17.13933 70.18854,17.0377 3.10531,-6.39123 -67.08323,-23.42893 63.08647,36.45347 -1.54885,6.93482 -64.63531,-29.51864 65.86278,29.64471 4.22682,-5.7118 -61.63596,-35.356524 55.314,47.42489 -2.79674,6.53214 -58.11074,-40.892739 59.29413,41.24221 5.20439,-4.83787 -54.08975,-46.08009 45.65787,56.78131 -3.94941,5.90702 -49.60727,-50.874285 50.70631,51.43525 6.00474,-3.7992 -44.70157,-55.234447 34.44692,64.20412 -4.96757,5.08075 -39.41449,-59.12337 40.39173,59.87672 6.60059,-2.63115 -33.79114,-62.507866 22.06292,69.44053 -5.81657,4.08145 -27.87949,-65.359071 28.70166,66.27917 6.97167,-1.37349 -21.72998,-67.652656 8.9276,72.31222 -6.46749,2.94317 -15.3951,-69.369058 16.0342,70.42455 7.10534,-0.0691 -8.92885,-70.493624 -4.51175,72.7214 -6.89818,1.70465 -2.38643,-71.01676 2.82071,72.17172 6.99706,1.23771 4.17635,-70.933999 -17.79745,70.65416 -7.09396,0.40809 10.7035,-70.246063 -10.48883,71.46117 6.65049,2.50235 17.13933,-68.958812 -30.47708,66.18086 -7.04815,-0.90237 23.42893,-67.08323 -23.4412,68.31709 6.07744,3.68177 29.51865,-64.635319 -42.11885,59.45385 -6.76233,-2.1821 35.35652,-61.63596 -35.5953,62.84654 5.29744,4.7358 z"
       transform="matrix(0.01868744,-0.00210448,0.00228659,0.01892872,31.429645,10.441946)" />
    <path
       transform="matrix(0.01868744,-0.00210448,0.00228659,0.01892872,33.42788,9.3297882)"
       d="m 794.41612,152.21476 c 40.89274,-58.110739 -52.32632,50.70222 -6.24623,-3.38752 46.08008,-54.089745 -46.53725,55.23584 4.33704,5.62857 50.87429,-49.60727 -60.75187,40.22398 -5.51743,-4.47759 55.23445,-44.70157 -55.89442,45.74416 3.22895,6.32967 59.12337,-39.41449 -67.10859,28.37597 -4.60072,-5.41517 62.50787,-33.79114 -63.34818,34.6947 2.01089,6.8152 65.35908,-27.87949 -71.18001,15.56164 -3.52735,-6.16834 67.65266,-21.72999 -68.64469,22.46375 0.72437,7.06866 69.36905,-15.39509 -72.82749,2.21738 -2.33387,-6.71147 70.49362,-8.92885 -71.60359,9.46784 -0.58683,7.08141 71.01676,-2.38643 -71.9949,-11.20239 -1.06089,-7.02604 70.934,4.17635 -72.12412,-3.85049 -1.87805,6.85301 70.24607,10.70349 -68.71062,-24.24068 0.2482,-7.10135 68.95881,17.13933 -70.18854,-17.0377 -3.10531,6.39123 67.08324,23.42893 -63.08647,-36.45347 1.54885,-6.93483 64.63532,29.51865 -65.86278,-29.64471 -4.22682,5.71181 61.63596,35.35652 -55.314,-47.42489 2.79674,-6.53215 58.11074,40.89275 -59.29413,-41.2422 -5.20439,4.83788 54.08975,46.08009 -45.65787,-56.781312 3.94941,-5.90702 49.60727,50.87428 -50.70631,-51.435252 -6.00474,3.7992 44.70157,55.23445 -34.44692,-64.20412 4.96757,-5.08075 39.41449,59.12337 -40.39173,-59.876724 -6.60059,2.63114 33.79114,62.50787 -22.06292,-69.44052 5.81657,-4.08145 27.8795,65.35908 -28.70166,-66.279164 -6.97167,1.37349 21.72999,67.65266 -8.9276,-72.312214 6.46749,-2.94316 15.3951,69.36906 -16.03419,-70.424556 -7.10534,0.0691 8.92885,70.49362 4.51175,-72.721404 6.89818,-1.70465 2.38643,71.01676 -2.82071,-72.17172 -6.99706,-1.23772 -4.17635,70.93401 17.79745,-70.654151 7.09396,-0.40808 -10.7035,70.24606 10.48884,-71.46117 -6.65049,-2.50235 -17.13933,68.95881 30.47708,-66.180865 7.04815,0.90237 -23.42893,67.08323 23.4412,-68.317088 -6.07744,-3.68177 -29.51865,64.63532 42.11885,-59.453856 6.76233,2.1821 -35.35652,61.63596 35.5953,-62.846545 -5.29744,-4.7358 -40.89274,58.11074 52.32632,-50.702226 6.24623,3.38752 -46.08008,54.08974 46.53725,-55.235846 -4.33704,-5.62857 -50.87428,49.60727 60.75188,-40.223987 5.51743,4.47758 -55.23445,44.70157 55.89442,-45.74415 -3.22895,-6.32966 -59.12337,39.41449 67.10859,-28.37597 4.60072,5.41517 -62.50786,33.79114 63.34818,-34.6947 -2.01089,-6.81521 -65.35908,27.8795 71.18001,-15.56164 3.52735,6.16835 -67.65266,21.72999 68.64469,-22.46376 -0.72436,-7.06866 -69.36906,15.39509 72.82748,-2.21738 2.33386,6.71147 -70.49362,8.92885 71.60359,-9.46785 0.58683,-7.08141 -71.01676,2.38643 71.9949,11.20238 1.0609,7.02604 -70.93401,-4.17635 72.12411,3.85049 1.87804,-6.85301 -70.24606,-10.7035 68.71062,24.24068 -0.2482,7.10135 -68.95881,-17.13933 70.18854,17.0377 3.10531,-6.39123 -67.08323,-23.42893 63.08647,36.45347 -1.54885,6.93482 -64.63531,-29.51864 65.86278,29.64471 4.22682,-5.7118 -61.63596,-35.356524 55.314,47.42489 -2.79674,6.53214 -58.11074,-40.892739 59.29413,41.24221 5.20439,-4.83787 -54.08975,-46.08009 45.65787,56.78131 -3.94941,5.90702 -49.60727,-50.874285 50.70631,51.43525 6.00474,-3.7992 -44.70157,-55.234447 34.44692,64.20412 -4.96757,5.08075 -39.41449,-59.12337 40.39173,59.87672 6.60059,-2.63115 -33.79114,-62.507866 22.06292,69.44053 -5.81657,4.08145 -27.87949,-65.359071 28.70166,66.27917 6.97167,-1.37349 -21.72998,-67.652656 8.9276,72.31222 -6.46749,2.94317 -15.3951,-69.369058 16.0342,70.42455 7.10534,-0.0691 -8.92885,-70.493624 -4.51175,72.7214 -6.89818,1.70465 -2.38643,-71.01676 2.82071,72.17172 6.99706,1.23771 4.17635,-70.933999 -17.79745,70.65416 -7.09396,0.40809 10.7035,-70.246063 -10.48883,71.46117 6.65049,2.50235 17.13933,-68.958812 -30.47708,66.18086 -7.04815,-0.90237 23.42893,-67.08323 -23.4412,68.31709 6.07744,3.68177 29.51865,-64.635319 -42.11885,59.45385 -6.76233,-2.1821 35.35652,-61.63596 -35.5953,62.84654 5.29744,4.7358 z"
       id="path5518"
       style="opacity:1;fill:#cccccc" />
    <path
       transform="matrix(0.02804251,-0.003158,0.00351849,0.02912659,21.864281,9.7299171)"
       d="m 775.5222,184.30066 3.73524,12.48001 -6.14041,-11.48904 -10.71495,7.40897 9.02924,-9.39019 -10.35744,-7.90102 11.72078,5.68558 4.31369,-12.29206 -1.78538,12.90407 13.02345,0.30411 z"
       id="path5520"
       style="opacity:1;fill:#ffffff" />
    <path
       style="opacity:1;fill:#ffffff"
       id="path5524"
       d="m 775.5222,184.30066 3.73524,12.48001 -6.14041,-11.48904 -10.71495,7.40897 9.02924,-9.39019 -10.35744,-7.90102 11.72078,5.68558 4.31369,-12.29206 -1.78538,12.90407 13.02345,0.30411 z"
       transform="matrix(0.02804251,-0.003158,0.00351849,0.02912659,24.023919,8.5601545)" />
    <path
       transform="matrix(0.02804251,-0.003158,0.00351849,0.02912659,26.008398,7.4889743)"
       d="m 775.5222,184.30066 3.73524,12.48001 -6.14041,-11.48904 -10.71495,7.40897 9.02924,-9.39019 -10.35744,-7.90102 11.72078,5.68558 4.31369,-12.29206 -1.78538,12.90407 13.02345,0.30411 z"
       id="path5526"
       style="opacity:1;fill:#ffffff" />
    <rect
       transform="matrix(0.99371863,-0.11190744,0.11992821,0.99278257,0,0)"
       style="opacity:1;fill:#cccccc;stroke-width:0.92566371"
       id="rect5538"
       width="0.55817366"
       height="0.12942821"
       x="51.578098"
       y="15.289153"
       ry="0.064714104" />
    <rect
       transform="matrix(0.13663207,0.99062186,-0.99144636,0.1305148,0,0)"
       ry="0.061342262"
       y="-51.644497"
       x="16.050524"
       height="0.12268452"
       width="0.58884716"
       id="rect5540"
       style="opacity:1;fill:#cccccc;stroke-width:0.92555308" />
    <path
       transform="matrix(0.07610158,-0.00857017,0.00887616,0.0734781,-11.22358,-10.065145)"
       id="path5737"
       d="m 649.47295,415.40998 c 0,0 -7.94629,-6.25915 -9.16441,-12.26711 -0.79604,-3.92616 -0.79105,-12.84324 0.0103,-15.79606 1.45514,-5.36161 7.12157,-13.62642 11.79775,-16.36731 1.42825,-0.83716 4.99309,-1.00769 5.37101,-1.00769 0.0748,0 -0.14456,0.42408 -0.48756,0.94239 -1.40754,2.12694 0.26001,8.67235 -3.48816,13.80761 0,0 -4.55677,6.90744 -3.4024,16.875 0.84949,7.33504 7.6631,17.09457 7.02064,17.49163 -0.11987,0.0741 -7.65721,-3.67846 -7.65721,-3.67846 z"
       style="opacity:1;fill:url(#linearGradient5777);fill-opacity:1;filter:url(#filter5767)" />
    <path
       transform="matrix(0.07610158,-0.00857017,0.00887616,0.0734781,-11.22358,-10.065145)"
       id="path5783"
       d="m 692.36663,407.37956 c 0,-0.0828 0.70312,-0.50511 1.5625,-0.93845 3.31064,-1.66938 20.4153,-11.10564 27.6875,-15.27456 16.51465,-9.46732 26.68387,-16.03146 32.75,-21.1398 2.74382,-2.3106 3.92598,-3.77807 4.87774,-6.05494 2.19838,-5.25918 5.39004,-9.47859 8.28823,-10.95714 1.15025,-0.58681 2.76169,-2.36967 4.28902,-4.74525 3.67393,-5.71436 2.5696,-12.17153 -2.61437,-15.28675 -3.98697,-2.39589 -10.64364,-3.46449 -19.71562,-3.16495 l -4.75,0.15684 1.625,-0.7738 c 4.15612,-1.97908 8.50454,-3.15847 12.5,-3.39029 2.98767,-0.17334 5.29993,0.11812 8.17624,1.03061 6.5992,2.09354 12.52524,8.66424 15.22453,16.88073 0.64393,1.96008 0.69888,2.43543 0.70805,6.125 0.008,3.09313 -0.0914,4.36841 -0.43702,5.625 -0.6731,2.44716 -2.94136,6.86102 -4.75351,9.25 -1.90206,2.50748 -5.87087,6.41594 -8.18782,8.0633 -1.19532,0.84987 -6.99982,3.5549 -21.25,9.903 -10.78301,4.80355 -27.59297,12.30092 -37.35547,16.66082 -17.85493,7.97394 -18.625,8.30598 -18.625,8.03063 z"
       style="opacity:1;fill:url(#linearGradient5791);fill-opacity:1;filter:url(#filter5823)" />
    <path
       id="path5528"
       d="m 49.571559,9.6598538 c -0.234457,-0.032332 -0.43956,-0.2032325 -0.53141,-0.4428081 -0.03264,-0.08514 -0.05251,-0.2468699 -0.04149,-0.3376702 0.03778,-0.3112255 0.2638,-0.5484079 0.55371,-0.5810558 0.107286,-0.012086 0.181914,-0.00206 0.290928,0.039189 0.312214,0.1180491 0.496627,0.4859981 0.413729,0.825488 -0.06684,0.2737312 -0.281414,0.4692494 -0.544512,0.4961647 -0.04609,0.00463 -0.109519,0.00506 -0.140957,6.652e-4 z"
       style="opacity:1;fill:#b3b3b3;stroke-width:0.92582315" />
    <path
       transform="matrix(0.02851439,-0.00321114,0.00361838,0.02995343,12.588105,10.999436)"
       d="m 1305.1123,85.420693 -16.8904,5.688094 -14.9782,-9.659011 -1.787,-17.732683 12.7498,-12.453284 17.6857,2.203693 9.304,15.201243 z"
       id="path5532"
       style="opacity:1;fill:#e6e6e6" />
    <rect
       transform="matrix(0.97425114,-0.22546557,0.22251033,0.97493033,0,0)"
       ry="0.077339172"
       y="19.857332"
       x="45.987083"
       height="0.15467834"
       width="0.90176404"
       id="rect5534"
       style="opacity:1;fill:#808080;stroke-width:0.92467409" />
    <rect
       transform="matrix(0.28981243,0.95708346,-0.95401551,0.29975725,0,0)"
       style="opacity:1;fill:#808080;stroke-width:0.92365092"
       id="rect5536"
       width="0.94824892"
       height="0.147103"
       x="22.979239"
       y="-45.012371"
       ry="0.073551498" />
    <path
       id="path5572"
       d="m 49.774141,9.429514 c -0.0189,-0.003 -0.03773,-0.01554 -0.04881,-0.032486 -0.0037,-0.00574 -0.02904,-0.083623 -0.05616,-0.1730471 -0.02712,-0.089426 -0.05042,-0.1635174 -0.05178,-0.1646479 -0.0013,-0.00111 -0.07134,0.013809 -0.155501,0.033197 l -0.153028,0.035246 -0.02102,-0.00797 c -0.0461,-0.017426 -0.0638,-0.071906 -0.03678,-0.1132465 0.01532,-0.023434 0.02446,-0.026632 0.178,-0.062083 0.07906,-0.018257 0.144033,-0.033677 0.144365,-0.034269 4.6e-4,-5.923e-4 -0.01904,-0.065469 -0.04304,-0.144169 -0.02401,-0.078703 -0.04475,-0.1513956 -0.04609,-0.1615442 -0.0085,-0.064355 0.05791,-0.1062264 0.109932,-0.069309 0.0085,0.00609 0.01799,0.015626 0.02105,0.0213 0.003,0.00566 0.02649,0.079526 0.05208,0.1641191 l 0.04652,0.1538102 0.0093,7.45e-5 c 0.0051,1.8e-5 0.0738,-0.014931 0.1526,-0.033317 0.155777,-0.036335 0.172096,-0.039215 0.190202,-0.033592 0.01702,0.00531 0.04131,0.028817 0.04617,0.044726 0.0067,0.021952 0.0051,0.046389 -0.0038,0.06408 -0.01518,0.029589 -0.01758,0.03048 -0.190928,0.070723 -0.0863,0.020031 -0.157136,0.03672 -0.157421,0.03708 -4.59e-4,3.694e-4 0.02081,0.070835 0.04687,0.156607 0.02607,0.085775 0.04808,0.1614834 0.04892,0.1682386 0.0062,0.047203 -0.03528,0.087805 -0.08163,0.080426 z"
       style="opacity:1;fill:#b3b3b3;stroke-width:0.92582315" />
    <path
       id="path5574"
       d="m 49.769455,9.4267111 c -0.03022,-0.00859 -0.04415,-0.02544 -0.05717,-0.069172 -0.0041,-0.013629 -0.0086,-0.024652 -0.01005,-0.024489 -0.0015,1.483e-4 -0.0024,-0.00403 -0.0021,-0.00925 3.06e-4,-0.0054 -0.0011,-0.00937 -0.0033,-0.00912 -0.0022,2.211e-4 -0.0033,-0.00223 -0.0025,-0.0054 7.67e-4,-0.00326 -2.29e-4,-0.00866 -0.0022,-0.012094 -0.0019,-0.00343 -0.0036,-0.01008 -0.0037,-0.01476 -2.6e-5,-0.00471 -0.0019,-0.00831 -0.0039,-0.00806 -0.002,2.22e-4 -0.0031,-0.00223 -0.0023,-0.0054 7.66e-4,-0.00317 -2.3e-4,-0.00866 -0.0022,-0.012094 -0.0019,-0.00343 -0.0035,-0.00909 -0.0035,-0.012549 1.53e-4,-0.00351 -0.0017,-0.00711 -0.0037,-0.00814 -0.002,-0.00103 -0.0033,-0.00506 -0.0028,-0.00909 5.37e-4,-0.00403 -9.8e-4,-0.00823 -0.0033,-0.00934 -0.0023,-0.00111 -0.0037,-0.00609 -0.0032,-0.01104 5.37e-4,-0.00489 -6.89e-4,-0.00993 -0.0032,-0.011057 -0.0023,-0.00111 -0.0035,-0.00386 -0.0025,-0.006 9.5e-4,-0.00214 1.53e-4,-0.00669 -0.0017,-0.00998 -0.0038,-0.0066 -0.0075,-0.019792 -0.0091,-0.03276 -6.13e-4,-0.00454 -0.0027,-0.00904 -0.0047,-0.010037 -0.002,-9.429e-4 -0.0031,-0.00429 -0.0023,-0.00737 6.89e-4,-0.00309 -3.07e-4,-0.00754 -0.0023,-0.010063 -0.002,-0.00249 -0.0042,-0.00789 -0.0051,-0.01194 -10e-4,-0.00403 -0.0029,-0.011529 -0.0047,-0.016552 -0.0017,-0.00506 -0.0048,-0.014537 -0.0069,-0.021137 -0.0035,-0.011109 -0.0045,-0.01176 -0.01465,-0.00868 -0.006,0.0018 -0.02204,0.00549 -0.03563,0.00806 -0.04251,0.00823 -0.0775,0.015677 -0.107424,0.022903 -0.0087,0.00206 -0.02249,0.00454 -0.03066,0.0054 -0.0082,8.571e-4 -0.01561,0.00334 -0.01651,0.0054 -9.04e-4,0.00206 -0.008,0.0036 -0.01568,0.00334 -0.0082,-2.22e-4 -0.01482,0.00137 -0.01592,0.00394 -0.0011,0.00249 -0.0065,0.00386 -0.0126,0.00326 -0.0059,-5.915e-4 -0.01341,5.177e-4 -0.01672,0.00249 -0.0084,0.00489 -0.0574,0.011734 -0.05784,0.00814 -2.3e-4,-0.00163 -0.0038,-0.00369 -0.0079,-0.00454 -0.01334,-0.00283 -0.04112,-0.028534 -0.04382,-0.040552 -0.0014,-0.00609 -0.004,-0.011503 -0.0059,-0.011983 -0.0048,-0.0012 -0.0059,-0.014134 -0.0016,-0.017734 0.002,-0.00163 0.0024,-0.006 9.42e-4,-0.00981 -0.0014,-0.00377 -0.0016,-0.00703 -3.06e-4,-0.0072 0.0013,-2.22e-4 0.0055,-0.00754 0.0093,-0.016269 0.0082,-0.018634 0.0259,-0.031603 0.05242,-0.038306 0.01013,-0.00257 0.01828,-0.00574 0.01812,-0.00711 -1.54e-4,-0.00137 0.006,-0.00249 0.01371,-0.00257 0.0077,-7.38e-5 0.01479,-0.00197 0.01576,-0.0042 9.5e-4,-0.00223 0.0081,-0.00377 0.01578,-0.0036 0.0082,2.212e-4 0.01482,-0.00137 0.01592,-0.00394 0.0011,-0.00249 0.0065,-0.00386 0.01261,-0.00326 0.0059,5.914e-4 0.0134,-5.923e-4 0.01671,-0.00257 0.0033,-0.00197 0.01155,-0.00471 0.01835,-0.00609 0.02338,-0.00463 0.04761,-0.00994 0.06335,-0.013869 0.0087,-0.00214 0.02289,-0.00566 0.03158,-0.00771 0.0087,-0.00206 0.02054,-0.00497 0.02633,-0.00634 0.0058,-0.00137 0.01428,-0.00326 0.01886,-0.00403 0.0065,-0.0012 0.0076,-0.00291 0.0049,-0.0078 -0.0019,-0.00343 -0.0037,-0.00999 -0.004,-0.014537 -1.5e-5,-0.00463 -0.0023,-0.00914 -0.0043,-0.010183 -0.0021,-0.00103 -0.0034,-0.00591 -0.0028,-0.010843 5.36e-4,-0.00489 -6.9e-4,-0.00987 -0.003,-0.010937 -0.0022,-0.00111 -0.0034,-0.00446 -0.0027,-0.00754 7.66e-4,-0.00309 -1.54e-4,-0.00754 -0.002,-0.0099 -0.0034,-0.00454 -0.0071,-0.017374 -0.0089,-0.03144 -6.13e-4,-0.00454 -0.0026,-0.00899 -0.0045,-0.00993 -0.0019,-9.429e-4 -0.003,-0.00497 -0.0025,-0.00897 4.6e-4,-0.00403 -9.81e-4,-0.00823 -0.0033,-0.00934 -0.0023,-0.00111 -0.0037,-0.00609 -0.0032,-0.01104 5.36e-4,-0.00489 -6.13e-4,-0.00981 -0.0028,-0.010843 -0.0021,-0.00103 -0.0034,-0.00514 -0.0029,-0.00915 5.36e-4,-0.00403 -9.81e-4,-0.00814 -0.0031,-0.00925 -0.0022,-0.00111 -0.0034,-0.00454 -0.0027,-0.00771 7.67e-4,-0.00317 -2.3e-4,-0.00857 -0.0021,-0.011974 -0.0019,-0.00343 -0.0036,-0.01008 -0.0037,-0.01476 -2.7e-5,-0.00471 -0.0018,-0.00831 -0.0036,-0.00814 -0.0018,2.22e-4 -0.0031,-0.00394 -0.0028,-0.00917 3.06e-4,-0.00549 -0.0011,-0.00936 -0.0033,-0.00911 -0.0024,2.957e-4 -0.0036,-0.00386 -0.0031,-0.011031 5.36e-4,-0.00754 -6.13e-4,-0.011314 -0.0035,-0.010997 -0.0023,2.957e-4 -0.0034,-0.00137 -0.0025,-0.0036 9.96e-4,-0.00223 -0.0013,-0.015437 -0.0051,-0.029314 -0.0055,-0.019894 -0.0063,-0.029006 -0.004,-0.043106 0.0016,-0.00983 0.0021,-0.017786 0.0011,-0.017674 -0.0049,5.177e-4 0.02612,-0.029872 0.03325,-0.032649 0.0046,-0.0018 0.0081,-0.00446 0.0079,-0.00591 -5.36e-4,-0.00437 0.03729,-0.00206 0.04984,0.00309 0.01772,0.0072 0.03578,0.026366 0.0406,0.043183 0.0024,0.00823 0.0057,0.01392 0.0073,0.012583 0.0017,-0.00137 0.0026,0.00274 0.0021,0.00923 -4.6e-4,0.00669 6.9e-4,0.011494 0.0027,0.011263 0.0019,-2.22e-4 0.0032,0.00394 0.0029,0.00915 -3.07e-4,0.00549 0.0011,0.00936 0.0033,0.00912 0.0022,-2.22e-4 0.0033,0.00223 0.0025,0.0054 -7.66e-4,0.00317 1.53e-4,0.00866 0.0022,0.012094 0.0019,0.00343 0.0036,0.01008 0.0037,0.01476 2.7e-5,0.00471 0.0019,0.00831 0.0039,0.00806 0.002,-2.22e-4 0.0031,0.00223 0.0023,0.0054 -7.66e-4,0.00326 2.3e-4,0.00866 0.0022,0.012094 0.0019,0.00343 0.0035,0.00909 0.0035,0.012549 -1.53e-4,0.00351 0.0017,0.0072 0.0039,0.00823 0.0021,0.00103 0.0033,0.00437 0.0026,0.00746 -6.9e-4,0.00309 2.3e-4,0.00754 0.0022,0.010071 0.0019,0.00249 0.0035,0.00823 0.0034,0.012711 3e-6,0.00446 0.0019,0.0091 0.0041,0.010234 0.0023,0.00111 0.0033,0.00386 0.0024,0.006 -9.5e-4,0.00214 -1.54e-4,0.0066 0.0017,0.00998 0.0019,0.00334 0.0035,0.00974 0.0036,0.014229 2e-6,0.00446 0.002,0.00903 0.0042,0.010089 0.0021,0.00111 0.0033,0.00446 0.0026,0.00746 -7.66e-4,0.00309 3.07e-4,0.00754 0.0022,0.010063 0.0019,0.00249 0.0035,0.0084 0.0035,0.013072 2.7e-5,0.00471 0.0017,0.00831 0.0039,0.00814 0.0023,-2.957e-4 0.0034,0.00326 0.0029,0.00875 -6.13e-4,0.00506 6.89e-4,0.010037 0.0027,0.011083 0.0021,0.00103 0.0034,0.00514 0.0029,0.00915 -4.6e-4,0.00403 4.6e-4,0.00814 0.0029,0.00916 0.0021,0.00103 0.0034,0.00549 0.0029,0.0098 -9.27e-4,0.00763 1.2e-5,0.00771 0.02504,0.00257 0.01431,-0.00291 0.03236,-0.0066 0.04012,-0.00823 0.02239,-0.00454 0.05149,-0.01098 0.06863,-0.015086 0.0087,-0.00206 0.0217,-0.00446 0.02892,-0.00523 0.0072,-8.057e-4 0.01389,-0.00326 0.01484,-0.0054 9.5e-4,-0.00214 0.0065,-0.00351 0.01244,-0.00291 0.0059,5.914e-4 0.01341,-5.914e-4 0.01671,-0.00257 0.006,-0.0036 0.02602,-0.0078 0.05128,-0.01092 0.0074,-8.572e-4 0.01494,-0.00291 0.01676,-0.00437 0.005,-0.00411 0.07771,-0.012866 0.07812,-0.00939 2.3e-4,0.00171 0.0015,0.00231 0.0029,0.00137 0.0043,-0.00283 0.0387,0.029272 0.04115,0.038469 0.0013,0.0048 0.0039,0.00956 0.0058,0.0105 0.0055,0.00274 -0.0032,0.05286 -0.01112,0.06426 -0.01088,0.015583 -0.02145,0.021686 -0.05298,0.030634 -0.01571,0.00446 -0.02843,0.00921 -0.02827,0.01056 1.53e-4,0.00137 -0.007,0.0024 -0.01597,0.0024 -0.01058,-6e-5 -0.01609,0.00137 -0.01577,0.00403 3.06e-4,0.00257 -0.0036,0.00377 -0.01035,0.00309 -0.006,-5.923e-4 -0.01355,5.915e-4 -0.01685,0.00257 -0.0033,0.00197 -0.01237,0.00471 -0.02015,0.00609 -0.01445,0.00257 -0.03213,0.00651 -0.06332,0.014169 -0.0097,0.0024 -0.02466,0.006 -0.03335,0.00806 -0.0087,0.00206 -0.02133,0.00514 -0.02808,0.00686 -0.0068,0.00171 -0.02098,0.00497 -0.03163,0.00729 -0.01065,0.00231 -0.02145,0.00471 -0.024,0.0054 -0.003,7.843e-4 -0.0035,0.00386 -0.0014,0.00873 0.0018,0.00411 0.0036,0.010063 0.004,0.013157 3.83e-4,0.00309 0.0019,0.00806 0.0035,0.010989 0.0032,0.00626 0.0069,0.020289 0.0084,0.032066 6.13e-4,0.00454 0.0026,0.009 0.0045,0.00993 0.0019,9.428e-4 0.003,0.00497 0.0025,0.00897 -4.6e-4,0.00403 9.81e-4,0.00823 0.0033,0.00934 0.0023,0.00111 0.0037,0.00609 0.0032,0.01104 -5.36e-4,0.00489 6.13e-4,0.00981 0.0028,0.010843 0.0021,0.00103 0.0034,0.00514 0.0029,0.00915 -5.36e-4,0.00403 9.81e-4,0.00823 0.0033,0.00934 0.0023,0.00111 0.0037,0.00609 0.0032,0.01104 -5.37e-4,0.00489 6.89e-4,0.00993 0.0032,0.011057 0.0023,0.00111 0.0035,0.00386 0.0025,0.006 -9.5e-4,0.00214 -1.54e-4,0.0066 0.0017,0.00998 0.0019,0.00334 0.0035,0.00974 0.0036,0.014229 3e-6,0.00446 0.002,0.00903 0.0042,0.010089 0.0021,0.00111 0.0033,0.00446 0.0026,0.00746 -6.89e-4,0.00309 2.3e-4,0.00754 0.0022,0.010072 0.0019,0.00249 0.0035,0.0084 0.0035,0.013072 2.7e-5,0.00471 0.0016,0.00831 0.0037,0.00814 0.002,-2.22e-4 0.0031,0.00223 0.0023,0.0054 -7.66e-4,0.00326 2.3e-4,0.00866 0.0021,0.012103 0.0019,0.00343 0.0036,0.01008 0.0037,0.01476 2.6e-5,0.00471 0.0017,0.00831 0.0035,0.00814 0.0018,-2.22e-4 0.0031,0.0048 0.003,0.011049 -7.7e-5,0.00626 0.0014,0.011229 0.0031,0.01104 0.0018,-2.22e-4 0.0033,0.00583 0.0034,0.013414 6e-5,0.00957 0.0015,0.012823 0.0038,0.010732 0.0021,-0.00171 0.004,-6.652e-4 0.0044,0.00257 3.83e-4,0.00309 -9.43e-4,0.00694 -0.0029,0.00857 -0.002,0.00163 -0.0025,0.006 -10e-4,0.00964 0.0014,0.00369 0.0015,0.00729 2.3e-4,0.00806 -0.0013,7.398e-4 -0.0052,0.00797 -0.0086,0.016072 -0.01182,0.027377 -0.04902,0.045232 -0.07741,0.037157 z"
       style="opacity:1;fill:#b3b3b3;stroke-width:0.92582315" />
    <path
       id="path6069"
       d="m 41.944495,13.543079 c 0.152113,-0.267147 0.07355,-0.884524 -0.212952,-1.673528 l -0.09054,-0.249354 0.104762,-0.05822 c 0.05762,-0.03202 1.698321,-0.956184 3.646003,-2.0536965 1.947682,-1.0975127 3.573962,-1.9991618 3.613957,-2.0036661 0.09915,-0.011169 0.304154,0.0639 0.451481,0.165314 l 0.121934,0.083932 -0.170017,0.020229 c -0.299363,0.035615 -0.607922,0.2015019 -1.118499,0.6013291 -0.12333,0.096578 -0.349208,0.2585794 -0.501952,0.3600023 -1.251545,0.8310415 -2.463591,1.8178662 -2.940923,2.3944432 -0.294068,0.355211 -0.361791,0.500412 -0.378663,0.811886 -0.02058,0.379841 -0.657603,0.902366 -1.676792,1.375397 -0.264751,0.122876 -0.713405,0.286482 -0.818071,0.298316 l -0.07582,0.0086 0.0461,-0.08096 z"
       style="opacity:0.33000004;fill:#ffffff;stroke-width:0.92582315" />
    <path
       transform="matrix(0.07610158,-0.00857017,0.00887616,0.0734781,-11.22358,-10.065145)"
       id="path6075"
       d="m 888.2993,431.81469 c -6.2435,-1.18032 -16.1925,-4.74365 -23.4474,-8.39795 -5.812,-2.92755 -15.8878,-9.06791 -27.30255,-16.63874 -13.99537,-9.28239 -20.36716,-14.45648 -18.10931,-14.7053 1.45409,-0.16025 5.43668,0.19294 9.60931,0.85217 5.91449,0.93443 11.39765,0.92287 13.23625,-0.0279 4.8719,-2.51936 8.4877,-30.40389 5.8486,-45.1046 -1.5831,-8.819 -5.23,-16.3506 -9.59389,-19.81372 -2.87734,-2.28339 -6.69335,-3.74905 -11.22785,-4.31241 -16.03233,-1.99183 -32.12023,1.91452 -39.2659,9.53426 l -2.16689,2.31064 -1.73123,-3.81064 c -0.95217,-2.09586 -2.66591,-6.363 -3.8083,-9.48254 l -2.07707,-5.67189 2.06193,-3.82811 c 6.10291,-11.33046 16.56502,-22.64233 27.47435,-29.70589 7.7606,-5.02482 14.25651,-7.81507 23.75,-10.20158 6.18348,-1.55442 17.88095,-2.13208 24.26665,-1.19837 8.7856,1.28463 19.245,5.74115 27.9774,11.92062 8.2708,5.85285 21.4144,19.96839 26.2051,28.14292 l 0.9492,1.61961 -1.1992,-0.33178 c -7.9222,-2.19191 -22.3707,-2.78249 -28.4492,-1.16285 -4.4364,1.18213 -9.7996,3.82399 -12.4557,6.13569 -3.0237,2.63151 -5.7956,7.09543 -7.3985,11.91431 -1.249,3.75527 -1.3447,4.65429 -1.3608,12.78921 -0.016,8.00546 0.1024,9.21222 1.3896,14.18209 3.3624,12.98158 9.2105,22.84806 19.7666,33.34893 8.585,8.53996 18.3994,15.41355 30.4141,21.30058 l 6.6052,3.23649 -1.0447,2.84095 c -2.2774,6.19291 -6.7532,10.94624 -12.4158,13.18562 -2.2239,0.87952 -3.9454,1.10943 -9,1.20201 -3.4375,0.063 -6.8125,0.008 -7.5,-0.12183 z"
       style="opacity:0.22000002;fill:#ffffff;filter:url(#filter6077)" />
    <path
       id="path6087"
       d="m 60.191074,13.950384 c -0.504284,-0.03112 -1.322793,-0.204331 -1.929028,-0.408223 -0.485665,-0.163345 -1.337076,-0.524783 -2.307085,-0.979404 -1.189304,-0.557398 -1.739184,-0.880826 -1.562816,-0.91922 0.113584,-0.02473 0.203008,-0.206674 0.437501,-0.432667 0.483713,-0.466178 0.346734,-0.379941 0.483713,-0.466178 C 55.676322,10.51618 55.518255,9.4626548 55.17904,8.4059801 54.543784,7.5231831 54.919669,7.7387783 54.543784,7.5231831 54.295942,7.3810319 54.099757,7.2939667 53.736117,7.2929607 52.450419,7.2894024 52.460748,8.115063 51.66385,7.9012688 L 51.235761,7.7864186 51.065011,7.5218391 C 50.9711,7.3763219 50.797683,7.0780442 50.67964,6.8590015 L 50.465017,6.4607424 50.594119,6.1610951 c 0.382116,-0.8868984 1.109173,-1.8112577 1.909309,-2.4274425 0.569195,-0.4383371 1.0582,-0.7012174 1.787868,-0.9611306 0.475264,-0.1692916 1.395305,-0.3159243 1.908647,-0.3041938 0.706267,0.01614 1.573072,0.2504368 2.318579,0.6267138 0.7061,0.3563892 1.870936,1.2765044 2.322398,1.8344833 l 0.08945,0.1105515 -0.09779,-0.013697 c -0.646034,-0.090496 -1.794028,-0.0052 -2.260408,0.1679489 -0.340388,0.1263751 -0.741122,0.3682632 -0.930676,0.5617797 -0.215791,0.2202901 -0.395402,0.5729798 -0.479405,0.9413377 -0.06545,0.287055 -0.06504,0.3539657 0.0059,0.951847 0.06979,0.5883682 0.08986,0.675985 0.235789,1.0296959 0.381162,0.9239136 0.931273,1.596795 1.859377,2.274358 0.754801,0.551035 1.592046,0.968677 2.594559,1.294231 l 0.551142,0.178981 -0.05741,0.218051 c -0.125153,0.475328 -0.43696,0.864459 -0.864945,1.079441 -0.168085,0.08443 -0.302199,0.116659 -0.701153,0.168483 -0.271317,0.03525 -0.538739,0.06127 -0.594267,0.05785 z"
       style="opacity:0.37000002;fill:url(#linearGradient6095);fill-opacity:1;stroke-width:0.92582315" />
    <path
       style="opacity:1;fill:url(#linearGradient6122);fill-opacity:1;stroke-width:0.92582315"
       d="m 57.223378,4.6027909 c -0.02335,-0.1245412 -0.0657,-0.3599771 -0.0941,-0.52319 C 57.061817,3.6919175 56.945228,3.1822547 56.831524,2.7780177 56.685007,2.2571268 56.560251,1.9978521 56.375258,1.8298211 56.189607,1.6611953 56.009742,1.5965349 55.663451,1.5739263 55.416455,1.5578032 55.336727,1.5210281 55.251996,1.3841529 c -0.06487,-0.1048102 -0.07547,-0.1799286 -0.03834,-0.2720267 0.05452,-0.1353454 0.236564,-0.19877705 0.562331,-0.19594597 0.31281,0.002717 0.557711,0.0492037 0.714874,0.13569227 0.503307,0.2769795 0.902357,1.0812184 1.188186,2.3946364 0.0839,0.3855284 0.165946,0.8706118 0.194581,1.1503809 0.01516,0.1478319 0.0118,0.1640726 -0.04097,0.1991676 -0.143692,0.095582 -0.394304,0.1561024 -0.477149,0.1152276 -0.07158,-0.035311 -0.08809,-0.073871 -0.132099,-0.3084978 z"
       id="path5244" />
    <path
       id="path6154"
       d="m 52.573899,22.864059 c -0.696628,-0.03401 -1.684665,-0.412321 -2.730785,-1.045604 -0.477183,-0.28887 -1.577649,-1.151043 -2.351959,-1.842674 -1.912315,-1.708115 -3.688376,-3.469716 -3.463081,-4.695245 l 0.04883,-0.265623 0.313486,0.229879 c 0.495036,0.36301 1.614309,0.994568 1.954036,1.102582 0.20343,0.06468 0.477574,0.05207 0.707181,-0.03251 0.447953,-0.165026 0.856691,-0.490508 1.790776,-1.426016 0.745252,-0.746388 1.07385,-0.993996 1.393814,-1.050284 0.203461,-0.0358 0.300961,-0.01237 0.440571,0.105852 0.201192,0.170365 0.358913,0.479574 0.501191,0.982564 0.171181,0.605171 0.355774,0.918267 0.714683,1.212205 0.581072,0.475886 1.374266,0.661813 2.615608,0.613108 1.385591,-0.05437 3.657477,-0.643888 5.68192,-1.474379 0.169685,-0.06961 0.313354,-0.122871 0.319265,-0.118357 0.0059,0.0045 -1.321371,1.496436 -2.949514,3.315381 -1.628143,1.818946 -2.986835,3.344833 -3.019318,3.39086 -0.364479,0.516454 -0.661927,0.750567 -1.137322,0.895153 -0.213588,0.06496 -0.607553,0.113939 -0.829384,0.10311 z"
       style="opacity:0.31000001;fill:#ffffff;stroke-width:0.92582315" />
    <path
       style="opacity:0.31000001;fill:url(#linearGradient6164);fill-opacity:1;stroke-width:0.92582315"
       d="m 52.573899,22.864059 c -0.696628,-0.03401 -1.684665,-0.412321 -2.730785,-1.045604 -0.477183,-0.28887 -1.577649,-1.151043 -2.351959,-1.842674 -1.912315,-1.708115 -3.688376,-3.469716 -3.463081,-4.695245 l 0.04883,-0.265623 0.313486,0.229879 c 0.495036,0.36301 1.614309,0.994568 1.954036,1.102582 0.20343,0.06468 0.477574,0.05207 0.707181,-0.03251 0.447953,-0.165026 0.856691,-0.490508 1.790776,-1.426016 0.745252,-0.746388 1.07385,-0.993996 1.393814,-1.050284 0.203461,-0.0358 0.300961,-0.01237 0.440571,0.105852 0.201192,0.170365 0.358913,0.479574 0.501191,0.982564 0.171181,0.605171 0.355774,0.918267 0.714683,1.212205 0.581072,0.475886 1.374266,0.661813 2.615608,0.613108 1.385591,-0.05437 3.657477,-0.643888 5.68192,-1.474379 0.169685,-0.06961 0.313354,-0.122871 0.319265,-0.118357 0.0059,0.0045 -1.321371,1.496436 -2.949514,3.315381 -1.628143,1.818946 -2.986835,3.344833 -3.019318,3.39086 -0.364479,0.516454 -0.661927,0.750567 -1.137322,0.895153 -0.213588,0.06496 -0.607553,0.113939 -0.829384,0.10311 z"
       id="path6156" />
    <path
       id="path6170"
       d="m 43.456511,23.82783 c -0.406089,0.06819 -0.757551,-0.04512 -1.091916,-0.284861 -0.371829,-0.266606 -0.626097,-0.679774 -0.798517,-1.078235 -0.33552,-0.775385 -0.15337,-1.249376 0.161857,-1.907361 l 0.08702,-0.18163 1.223275,-1.527096 c 0.672801,-0.839902 1.295148,-1.619998 1.382995,-1.733547 l 0.159721,-0.206452 0.092,0.119383 c 0.0506,0.06566 0.170447,0.225975 0.266328,0.356257 l 0.174329,0.236877 -0.06067,0.03291 c -0.177996,0.09656 -0.496619,0.437242 -0.733751,0.784554 -0.434628,0.636571 0.110992,2.352673 -1.319198,2.612809 -2.152426,0.391504 -0.429597,1.057884 -0.415958,1.107562 0.02409,0.08774 -0.147734,0.377999 0.107087,0.05932 0.173521,-0.217001 -0.03618,0.366721 0.290731,0.0097 l 0.29202,-0.218823 0.187915,-0.09734 c 0.185576,-0.09612 0.455992,0.934862 0.845987,1.029612 0.388702,0.09444 0.879342,-0.867824 1.380575,-0.832357 0.09628,0.0068 0.186564,0.01658 0.20063,0.02172 0.05559,0.02028 -0.402948,0.592215 -0.716747,0.894007 -0.292577,0.281381 -0.69393,0.550264 -0.999063,0.669314 -0.135739,0.05296 -0.230213,0.07599 -0.42148,0.102771 -0.13559,0.01898 -0.268415,0.0329 -0.29517,0.03093 z"
       style="opacity:0.36000001;fill:#ffffff;stroke-width:0.92582315" />
    <path
       id="path6180"
       d="m 46.72335,24.147368 c -0.152026,-7.68e-4 -0.325741,-0.05444 -0.441394,-0.13636 l -0.106352,-0.07533 0.176422,-0.04012 c 0.345897,-0.07866 0.825211,-0.28978 1.277082,-0.562506 0.939824,-0.567229 1.680859,-1.177232 1.852581,-1.525003 l 0.03486,-0.0706 -0.07401,-0.126807 c -0.0407,-0.06975 -0.07142,-0.130107 -0.06825,-0.134141 0.0067,-0.0086 0.548287,0.258077 0.608581,0.299659 0.04044,0.02789 0.02963,0.03993 -0.877555,0.977717 -0.505172,0.522216 -0.930246,0.962281 -0.94461,0.977927 -0.03678,0.04006 -0.46996,0.262483 -0.715523,0.335449 -0.220627,0.06555 -0.578077,0.08085 -0.721832,0.08013 z"
       style="opacity:0.36000001;fill:#ffffff;stroke-width:0.92582315" />
  </g>
</svg>
